SplineFontDB: 3.0
FontName: Plan9
FullName: Plan9
FamilyName: Plan9
Weight: Book
Version: 1.0
ItalicAngle: 0
UnderlinePosition: -150
UnderlineWidth: 50
Ascent: 800
Descent: 200
InvalidEm: 0
sfntRevision: 0x00010000
LayerCount: 2
Layer: 0 1 "Back" 1
Layer: 1 1 "Fore" 0
XUID: [1021 99 1088095521 2009763]
StyleMap: 0x0000
FSType: 0
OS2Version: 1
OS2_WeightWidthSlopeOnly: 0
OS2_UseTypoMetrics: 0
CreationTime: 1571663667
ModificationTime: 1583016176
PfmFamily: 17
TTFWeight: 400
TTFWidth: 5
LineGap: 90
VLineGap: 0
Panose: 2 0 5 3 0 0 0 0 0 0
OS2TypoAscent: 800
OS2TypoAOffset: 0
OS2TypoDescent: -200
OS2TypoDOffset: 0
OS2TypoLinegap: 90
OS2WinAscent: 0
OS2WinAOffset: 0
OS2WinDescent: 0
OS2WinDOffset: 0
HheadAscent: 710
HheadAOffset: 0
HheadDescent: -92
HheadDOffset: 0
OS2SubXSize: 650
OS2SubYSize: 700
OS2SubXOff: 0
OS2SubYOff: 140
OS2SupXSize: 650
OS2SupYSize: 700
OS2SupXOff: 0
OS2SupYOff: 480
OS2StrikeYSize: 49
OS2StrikeYPos: 258
OS2Vendor: 'PfEd'
OS2CodePages: 00000001.00000000
OS2UnicodeRanges: 00000001.00000000.00000000.00000000
DEI: 91125
ShortTable: maxp 16
  1
  0
  32
  36
  3
  0
  0
  2
  0
  1
  1
  0
  64
  0
  0
  0
EndShort
LangName: 1033 "" "" "Regular" "FontForge 2.0 : Plan9 : 21-10-2019" "" "Version 1.0"
GaspTable: 1 65535 2 0
Encoding: UnicodeBmp
UnicodeInterp: none
NameList: AGL For New Fonts
DisplaySize: -128
AntiAlias: 1
FitToEm: 0
WinInfo: 0 29 12
BeginChars: 65539 78

StartChar: exclam
Encoding: 33 33 4
Width: 201
GlyphClass: 2
Flags: W
LayerCount: 2
Fore
SplineSet
32 710 m 1,0,-1
 32 180 l 1,1,-1
 162 180 l 1,2,-1
 162 710 l 1,3,-1
 32 710 l 1,0,-1
98 -26 m 128,-1,5
 66 -26 66 -26 43 -3 c 128,-1,6
 20 20 20 20 20 52 c 128,-1,7
 20 84 20 84 43 107 c 128,-1,8
 66 130 66 130 98 130 c 128,-1,9
 130 130 130 130 153 107 c 128,-1,10
 176 84 176 84 176 52 c 128,-1,11
 176 20 176 20 153 -3 c 128,-1,4
 130 -26 130 -26 98 -26 c 128,-1,5
EndSplineSet
Validated: 9
EndChar

StartChar: nine
Encoding: 57 57 5
Width: 440
GlyphClass: 2
Flags: W
LayerCount: 2
Fore
SplineSet
170 571 m 2,0,-1
 254 571 l 2,1,2
 267 571 267 571 267 558 c 2,3,-1
 267 419 l 2,4,5
 267 406 267 406 254 406 c 2,6,-1
 170 406 l 2,7,8
 157 406 157 406 157 419 c 2,9,-1
 157 558 l 2,10,11
 157 571 157 571 170 571 c 2,0,-1
27 636 m 2,12,-1
 27 341 l 2,13,14
 27 314 27 314 46 295 c 128,-1,15
 65 276 65 276 92 276 c 2,16,-1
 254 276 l 2,17,18
 267 276 267 276 267 289 c 2,19,-1
 267 144 l 2,20,21
 267 131 267 131 254 131 c 2,22,-1
 62 131 l 1,23,-1
 62 1 l 1,24,-1
 332 1 l 2,25,26
 359 1 359 1 378 20 c 128,-1,27
 397 39 397 39 397 66 c 2,28,-1
 397 636 l 2,29,30
 397 663 397 663 378 682 c 128,-1,31
 359 701 359 701 332 701 c 6,32,-1
 92 701 l 6,33,34
 65 701 65 701 46 682 c 128,-1,35
 27 663 27 663 27 636 c 2,12,-1
EndSplineSet
Validated: 9
EndChar

StartChar: A
Encoding: 65 65 6
Width: 457
GlyphClass: 2
Flags: W
LayerCount: 2
Fore
SplineSet
310 0 m 5,0,-1
 298 92 l 5,1,-1
 172 92 l 5,2,-1
 160 0 l 5,3,-1
 30 0 l 5,4,-1
 136 700 l 5,5,-1
 334 700 l 5,6,-1
 440 0 l 5,7,-1
 310 0 l 5,0,-1
235 570 m 5,8,-1
 189 222 l 5,9,-1
 281 222 l 5,10,-1
 235 570 l 5,8,-1
EndSplineSet
Validated: 1
EndChar

StartChar: B
Encoding: 66 66 7
Width: 459
GlyphClass: 2
Flags: W
LayerCount: 2
Fore
SplineSet
420 300 m 2,0,-1
 420 65 l 2,1,2
 420 38 420 38 401 19 c 128,-1,3
 382 0 382 0 355 0 c 2,4,-1
 30 0 l 1,5,-1
 30 701 l 1,6,-1
 355 701 l 2,7,8
 382 701 382 701 401 682 c 128,-1,9
 420 663 420 663 420 636 c 2,10,-1
 420 430 l 2,11,12
 420 403 420 403 401 384 c 128,-1,13
 382 365 382 365 355 365 c 1,14,15
 382 365 382 365 401 346 c 128,-1,16
 420 327 420 327 420 300 c 2,0,-1
160 430 m 1,17,-1
 277 430 l 2,18,19
 290 430 290 430 290 443 c 2,20,-1
 290 558 l 2,21,22
 290 571 290 571 277 571 c 2,23,-1
 160 571 l 1,24,-1
 160 430 l 1,17,-1
160 130 m 1,25,-1
 277 130 l 2,26,27
 290 130 290 130 290 143 c 2,28,-1
 290 287 l 2,29,30
 290 300 290 300 277 300 c 2,31,-1
 160 300 l 1,32,-1
 160 130 l 1,25,-1
EndSplineSet
Validated: 1
EndChar

StartChar: C
Encoding: 67 67 8
Width: 388
GlyphClass: 2
Flags: W
LayerCount: 2
Fore
SplineSet
355 130 m 1,0,-1
 184 130 l 2,1,2
 171 130 171 130 171 143 c 2,3,-1
 171 558 l 2,4,5
 171 571 171 571 184 571 c 2,6,-1
 355 571 l 1,7,-1
 355 701 l 1,8,-1
 106 701 l 2,9,10
 79 701 79 701 60 682 c 128,-1,11
 41 663 41 663 41 636 c 2,12,-1
 41 65 l 2,13,14
 41 38 41 38 60 19 c 128,-1,15
 79 0 79 0 106 0 c 2,16,-1
 355 0 l 1,17,-1
 355 130 l 1,0,-1
EndSplineSet
Validated: 9
EndChar

StartChar: D
Encoding: 68 68 9
Width: 468
GlyphClass: 2
Flags: W
LayerCount: 2
Fore
SplineSet
428 461 m 2,0,-1
 428 239 l 2,1,2
 428 75 428 75 395 41 c 0,3,4
 373 18 373 18 351.5 9 c 128,-1,5
 330 0 330 0 289 0 c 2,6,-1
 38 0 l 1,7,-1
 38 700 l 1,8,-1
 289 700 l 2,9,10
 330 700 330 700 351.5 691 c 128,-1,11
 373 682 373 682 395 659 c 0,12,13
 428 625 428 625 428 461 c 2,0,-1
273 570 m 2,14,-1
 168 570 l 1,15,-1
 168 130 l 1,16,-1
 273 130 l 2,17,18
 284 130 284 130 291 137 c 128,-1,19
 298 144 298 144 298 155 c 2,20,-1
 298 545 l 2,21,22
 298 556 298 556 291 563 c 128,-1,23
 284 570 284 570 273 570 c 2,14,-1
EndSplineSet
Validated: 1
EndChar

StartChar: E
Encoding: 69 69 10
Width: 369
GlyphClass: 2
Flags: W
LayerCount: 2
Fore
SplineSet
324 570 m 1,0,-1
 173 570 l 1,1,-1
 173 421 l 1,2,-1
 303 421 l 1,3,-1
 303 291 l 1,4,-1
 173 291 l 1,5,-1
 173 130 l 1,6,-1
 324 130 l 1,7,-1
 324 0 l 1,8,-1
 43 0 l 1,9,-1
 43 700 l 1,10,-1
 324 700 l 1,11,-1
 324 570 l 1,0,-1
EndSplineSet
Validated: 1
EndChar

StartChar: F
Encoding: 70 70 11
Width: 354
GlyphClass: 2
Flags: W
LayerCount: 2
Fore
SplineSet
327 570 m 1,0,-1
 176 570 l 1,1,-1
 176 421 l 1,2,-1
 306 421 l 1,3,-1
 306 287 l 1,4,-1
 176 287 l 1,5,-1
 176 0 l 1,6,-1
 46 0 l 1,7,-1
 46 700 l 1,8,-1
 327 700 l 1,9,-1
 327 570 l 1,0,-1
EndSplineSet
Validated: 1
EndChar

StartChar: G
Encoding: 71 71 12
Width: 468
GlyphClass: 2
Flags: W
LayerCount: 2
Fore
SplineSet
236 390 m 1,0,-1
 418 390 l 2,1,2
 431 390 431 390 431 377 c 2,3,-1
 431 65 l 2,4,5
 431 38 431 38 412 19 c 128,-1,6
 393 0 393 0 366 0 c 2,7,-1
 106 0 l 2,8,9
 79 0 79 0 60 19 c 128,-1,10
 41 38 41 38 41 65 c 2,11,-1
 41 636 l 2,12,13
 41 663 41 663 60 682 c 128,-1,14
 79 701 79 701 106 701 c 2,15,-1
 365 701 l 1,16,-1
 365 571 l 1,17,-1
 184 571 l 2,18,19
 171 571 171 571 171 558 c 2,20,-1
 171 143 l 2,21,22
 171 130 171 130 184 130 c 2,23,-1
 288 130 l 2,24,25
 301 130 301 130 301 143 c 2,26,-1
 301 247 l 2,27,28
 301 260 301 260 288 260 c 2,29,-1
 236 260 l 1,30,-1
 236 390 l 1,0,-1
EndSplineSet
Validated: 1
EndChar

StartChar: H
Encoding: 72 72 13
Width: 479
GlyphClass: 2
Flags: W
LayerCount: 2
Fore
SplineSet
303 287 m 1,0,-1
 303 0 l 1,1,-1
 433 0 l 1,2,-1
 433 700 l 1,3,-1
 303 700 l 1,4,-1
 303 421 l 1,5,-1
 173 421 l 1,6,-1
 173 700 l 1,7,-1
 43 700 l 1,8,-1
 43 0 l 1,9,-1
 173 0 l 1,10,-1
 173 287 l 1,11,-1
 303 287 l 1,0,-1
EndSplineSet
Validated: 9
EndChar

StartChar: I
Encoding: 73 73 14
Width: 238
GlyphClass: 2
Flags: W
LayerCount: 2
Fore
SplineSet
49 700 m 5,0,-1
 49 0 l 5,1,-1
 179 0 l 5,2,-1
 179 700 l 5,3,-1
 49 700 l 5,0,-1
EndSplineSet
Validated: 9
EndChar

StartChar: J
Encoding: 74 74 15
Width: 355
GlyphClass: 2
Flags: W
LayerCount: 2
Fore
SplineSet
25 130 m 5,0,-1
 25 0 l 5,1,-1
 258 0 l 6,2,3
 285 0 285 0 304 19 c 132,-1,4
 323 38 323 38 323 65 c 6,5,-1
 323 700 l 5,6,-1
 193 700 l 5,7,-1
 193 143 l 6,8,9
 193 130 193 130 180 130 c 6,10,-1
 25 130 l 5,0,-1
EndSplineSet
Validated: 9
EndChar

StartChar: K
Encoding: 75 75 16
Width: 479
GlyphClass: 2
Flags: W
LayerCount: 2
Fore
SplineSet
157 701 m 1,0,-1
 157 452 l 1,1,-1
 277 701 l 1,2,-1
 418 701 l 1,3,-1
 277 411 l 1,4,-1
 449 0 l 1,5,-1
 308 0 l 1,6,-1
 202 255 l 1,7,-1
 157 161 l 1,8,-1
 157 0 l 1,9,-1
 27 0 l 1,10,-1
 27 701 l 1,11,-1
 157 701 l 1,0,-1
EndSplineSet
Validated: 1
EndChar

StartChar: L
Encoding: 76 76 17
Width: 350
GlyphClass: 2
Flags: W
LayerCount: 2
Fore
SplineSet
157 700 m 1,0,-1
 157 130 l 1,1,-1
 325 130 l 1,2,-1
 325 0 l 1,3,-1
 27 0 l 1,4,-1
 27 700 l 1,5,-1
 157 700 l 1,0,-1
EndSplineSet
Validated: 1
EndChar

StartChar: M
Encoding: 77 77 18
Width: 631
GlyphClass: 2
Flags: W
LayerCount: 2
Fore
SplineSet
230 700 m 1,0,-1
 49 700 l 1,1,-1
 49 0 l 1,2,-1
 179 0 l 1,3,-1
 179 416 l 1,4,-1
 267 0 l 1,5,-1
 369 0 l 1,6,-1
 457 416 l 1,7,-1
 457 0 l 1,8,-1
 587 0 l 1,9,-1
 587 700 l 1,10,-1
 406 700 l 1,11,-1
 318 284 l 1,12,-1
 230 700 l 1,0,-1
EndSplineSet
Validated: 9
EndChar

StartChar: N
Encoding: 78 78 19
Width: 480
GlyphClass: 2
Flags: W
LayerCount: 2
Fore
SplineSet
30 700 m 1,0,-1
 30 0 l 1,1,-1
 160 0 l 1,2,-1
 160 384 l 1,3,-1
 318 0 l 1,4,-1
 448 0 l 1,5,-1
 448 700 l 1,6,-1
 318 700 l 1,7,-1
 318 316 l 1,8,-1
 160 700 l 1,9,-1
 30 700 l 1,0,-1
EndSplineSet
Validated: 9
EndChar

StartChar: O
Encoding: 79 79 20
Width: 462
GlyphClass: 2
Flags: W
LayerCount: 2
Fore
SplineSet
296 557 m 6,0,-1
 296 143 l 6,1,2
 296 130 296 130 283 130 c 6,3,-1
 179 130 l 6,4,5
 166 130 166 130 166 143 c 6,6,-1
 166 557 l 6,7,8
 166 570 166 570 179 570 c 6,9,-1
 283 570 l 6,10,11
 296 570 296 570 296 557 c 6,0,-1
36 635 m 6,12,-1
 36 65 l 6,13,14
 36 38 36 38 55 19 c 132,-1,15
 74 0 74 0 101 0 c 6,16,-1
 361 0 l 6,17,18
 388 0 388 0 407 19 c 132,-1,19
 426 38 426 38 426 65 c 6,20,-1
 426 635 l 6,21,22
 426 662 426 662 407 681 c 132,-1,23
 388 700 388 700 361 700 c 6,24,-1
 101 700 l 6,25,26
 74 700 74 700 55 681 c 132,-1,27
 36 662 36 662 36 635 c 6,12,-1
EndSplineSet
Validated: 9
EndChar

StartChar: P
Encoding: 80 80 21
Width: 438
GlyphClass: 2
Flags: W
LayerCount: 2
Fore
SplineSet
417 636 m 2,0,-1
 417 341 l 2,1,2
 417 314 417 314 398 295 c 128,-1,3
 379 276 379 276 352 276 c 2,4,-1
 157 276 l 1,5,-1
 157 0 l 1,6,-1
 27 0 l 1,7,-1
 27 701 l 1,8,-1
 352 701 l 2,9,10
 379 701 379 701 398 682 c 128,-1,11
 417 663 417 663 417 636 c 2,0,-1
157 406 m 1,12,-1
 274 406 l 2,13,14
 287 406 287 406 287 419 c 2,15,-1
 287 558 l 2,16,17
 287 571 287 571 274 571 c 2,18,-1
 157 571 l 1,19,-1
 157 406 l 1,12,-1
EndSplineSet
Validated: 1
EndChar

StartChar: Q
Encoding: 81 81 22
Width: 462
GlyphClass: 2
Flags: W
LayerCount: 2
Fore
SplineSet
283 -92 m 1,0,-1
 234 0 l 1,1,-1
 101 0 l 2,2,3
 74 0 74 0 55 19 c 128,-1,4
 36 38 36 38 36 65 c 2,5,-1
 36 635 l 2,6,7
 36 662 36 662 55 681 c 128,-1,8
 74 700 74 700 101 700 c 2,9,-1
 361 700 l 2,10,11
 388 700 388 700 407 681 c 128,-1,12
 426 662 426 662 426 635 c 2,13,-1
 426 65 l 2,14,15
 426 39 426 39 408 20.5 c 128,-1,16
 390 2 390 2 364 0 c 1,17,-1
 413 -92 l 1,18,-1
 283 -92 l 1,0,-1
296 143 m 2,19,-1
 296 557 l 2,20,21
 296 570 296 570 283 570 c 2,22,-1
 179 570 l 2,23,24
 166 570 166 570 166 557 c 2,25,-1
 166 143 l 2,26,27
 166 132 166 132 176 130 c 2,28,-1
 285 130 l 2,29,30
 296 132 296 132 296 143 c 2,19,-1
EndSplineSet
Validated: 1
EndChar

StartChar: R
Encoding: 82 82 23
Width: 462
GlyphClass: 2
Flags: W
LayerCount: 2
Fore
SplineSet
425 636 m 2,0,-1
 425 356 l 2,1,2
 425 332 425 332 404 310.5 c 128,-1,3
 383 289 383 289 359 279 c 1,4,-1
 425 0 l 1,5,-1
 284 0 l 1,6,-1
 218 276 l 1,7,-1
 165 276 l 1,8,-1
 165 0 l 1,9,-1
 35 0 l 1,10,-1
 35 701 l 1,11,-1
 360 701 l 2,12,13
 387 701 387 701 406 682 c 128,-1,14
 425 663 425 663 425 636 c 2,0,-1
165 406 m 1,15,-1
 282 406 l 2,16,17
 295 406 295 406 295 419 c 2,18,-1
 295 558 l 2,19,20
 295 571 295 571 282 571 c 2,21,-1
 165 571 l 1,22,-1
 165 406 l 1,15,-1
EndSplineSet
Validated: 1
EndChar

StartChar: S
Encoding: 83 83 24
Width: 418
GlyphClass: 2
Flags: W
LayerCount: 2
Fore
SplineSet
366 700 m 5,0,-1
 366 570 l 5,1,-1
 182 570 l 6,2,3
 169 570 169 570 169 557 c 6,4,-1
 167 443 l 6,5,6
 167 430 167 430 180 430 c 6,7,-1
 321 430 l 6,8,9
 348 430 348 430 367 411 c 132,-1,10
 386 392 386 392 386 365 c 6,11,-1
 386 65 l 6,12,13
 386 38 386 38 367 19 c 132,-1,14
 348 0 348 0 321 0 c 6,15,-1
 39 0 l 5,16,-1
 39 130 l 5,17,-1
 243 130 l 6,18,19
 256 130 256 130 256 143 c 6,20,-1
 256 287 l 6,21,22
 256 300 256 300 243 300 c 6,23,-1
 102 300 l 6,24,25
 75 300 75 300 56 319 c 132,-1,26
 37 338 37 338 37 365 c 6,27,-1
 39 635 l 6,28,29
 39 662 39 662 58 681 c 132,-1,30
 77 700 77 700 104 700 c 6,31,-1
 366 700 l 5,0,-1
EndSplineSet
Validated: 1
EndChar

StartChar: T
Encoding: 84 84 25
Width: 369
GlyphClass: 2
Flags: W
LayerCount: 2
Fore
SplineSet
344 700 m 1,0,-1
 22 700 l 1,1,-1
 22 566 l 1,2,-1
 116 566 l 1,3,-1
 116 0 l 1,4,-1
 250 0 l 1,5,-1
 250 566 l 1,6,-1
 344 566 l 1,7,-1
 344 700 l 1,0,-1
EndSplineSet
Validated: 9
EndChar

StartChar: U
Encoding: 85 85 26
Width: 479
GlyphClass: 2
Flags: W
LayerCount: 2
Fore
SplineSet
106 0 m 2,0,-1
 366 0 l 2,1,2
 393 0 393 0 412 19 c 128,-1,3
 431 38 431 38 431 65 c 2,4,-1
 431 700 l 1,5,-1
 301 700 l 1,6,-1
 301 143 l 2,7,8
 301 130 301 130 288 130 c 2,9,-1
 184 130 l 2,10,11
 171 130 171 130 171 143 c 2,12,-1
 171 700 l 1,13,-1
 41 700 l 1,14,-1
 41 65 l 2,15,16
 41 38 41 38 60 19 c 128,-1,17
 79 0 79 0 106 0 c 2,0,-1
EndSplineSet
Validated: 9
EndChar

StartChar: V
Encoding: 86 86 27
Width: 468
GlyphClass: 2
Flags: W
LayerCount: 2
Fore
SplineSet
155 700 m 1,0,-1
 230 196 l 1,1,-1
 306 700 l 1,2,-1
 428 700 l 1,3,-1
 323 0 l 1,4,-1
 138 0 l 1,5,-1
 33 700 l 1,6,-1
 155 700 l 1,0,-1
EndSplineSet
Validated: 1
EndChar

StartChar: W
Encoding: 87 87 28
Width: 654
GlyphClass: 2
Flags: W
LayerCount: 2
Fore
SplineSet
138 700 m 1,0,-1
 199 292 l 1,1,-1
 276 680 l 1,2,-1
 378 680 l 1,3,-1
 455 292 l 1,4,-1
 516 700 l 1,5,-1
 638 700 l 1,6,-1
 533 0 l 1,7,-1
 411 0 l 1,8,-1
 327 423 l 1,9,-1
 243 0 l 1,10,-1
 121 0 l 1,11,-1
 16 700 l 1,12,-1
 138 700 l 1,0,-1
EndSplineSet
Validated: 1
EndChar

StartChar: X
Encoding: 88 88 29
Width: 441
GlyphClass: 2
Flags: W
LayerCount: 2
Fore
SplineSet
432 0 m 1,0,-1
 292 371 l 1,1,-1
 416 700 l 1,2,-1
 276 700 l 1,3,-1
 222 557 l 1,4,-1
 168 700 l 1,5,-1
 28 700 l 1,6,-1
 152 371 l 1,7,-1
 12 0 l 1,8,-1
 152 0 l 1,9,-1
 222 185 l 1,10,-1
 292 0 l 1,11,-1
 432 0 l 1,0,-1
EndSplineSet
Validated: 9
EndChar

StartChar: Y
Encoding: 89 89 30
Width: 404
GlyphClass: 2
Flags: W
LayerCount: 2
Fore
SplineSet
265 376 m 1,0,-1
 267 376 l 1,1,-1
 389 700 l 1,2,-1
 257 700 l 1,3,-1
 201 551 l 1,4,-1
 145 700 l 1,5,-1
 13 700 l 1,6,-1
 135 376 l 1,7,-1
 135 0 l 1,8,-1
 265 0 l 1,9,-1
 265 376 l 1,0,-1
EndSplineSet
Validated: 9
EndChar

StartChar: Z
Encoding: 90 90 31
Width: 446
GlyphClass: 2
Flags: W
LayerCount: 2
Fore
SplineSet
50 700 m 1,0,-1
 50 570 l 1,1,-1
 233 570 l 1,2,-1
 18 0 l 1,3,-1
 414 0 l 1,4,-1
 414 130 l 1,5,-1
 207 130 l 1,6,-1
 422 700 l 1,7,-1
 50 700 l 1,0,-1
EndSplineSet
Validated: 9
EndChar

StartChar: zero
Encoding: 48 48 36
Width: 440
Flags: W
LayerCount: 2
Fore
SplineSet
202 413 m 5,0,-1
 233 413 l 5,1,-1
 233 301 l 5,2,-1
 202 301 l 5,3,-1
 202 413 l 5,0,-1
265 557 m 6,4,-1
 265 143 l 6,5,6
 265 130 265 130 232 130 c 6,7,-1
 202 130 l 6,8,9
 169 130 169 130 169 143 c 6,10,-1
 169 557 l 6,11,12
 169 570 169 570 202 570 c 6,13,-1
 232 570 l 6,14,15
 265 570 265 570 265 557 c 6,4,-1
39 635 m 6,16,-1
 39 65 l 6,17,18
 39 38 39 38 58 19 c 132,-1,19
 77 0 77 0 104 0 c 6,20,-1
 330 0 l 6,21,22
 357 0 357 0 376 19 c 132,-1,23
 395 38 395 38 395 65 c 6,24,-1
 395 635 l 6,25,26
 395 662 395 662 376 681 c 132,-1,27
 357 700 357 700 330 700 c 6,28,-1
 104 700 l 6,29,30
 77 700 77 700 58 681 c 132,-1,31
 39 662 39 662 39 635 c 6,16,-1
EndSplineSet
Validated: 9
EndChar

StartChar: one
Encoding: 49 49 37
Width: 440
Flags: W
LayerCount: 2
Fore
SplineSet
25 570 m 5,0,-1
 25 700 l 5,1,-1
 258 700 l 6,2,3
 285 700 285 700 304 681 c 132,-1,4
 323 662 323 662 323 635 c 6,5,-1
 323 0 l 5,6,-1
 193 0 l 5,7,-1
 193 557 l 6,8,9
 193 570 193 570 180 570 c 6,10,-1
 25 570 l 5,0,-1
EndSplineSet
Validated: 1
EndChar

StartChar: two
Encoding: 50 50 38
Width: 440
Flags: W
LayerCount: 2
Fore
SplineSet
366 0 m 5,0,-1
 366 130 l 5,1,-1
 182 130 l 6,2,3
 169 130 169 130 169 143 c 6,4,-1
 167 257 l 6,5,6
 167 270 167 270 180 270 c 6,7,-1
 321 270 l 6,8,9
 348 270 348 270 367 289 c 132,-1,10
 386 308 386 308 386 335 c 6,11,-1
 386 635 l 6,12,13
 386 662 386 662 367 681 c 132,-1,14
 348 700 348 700 321 700 c 6,15,-1
 39 700 l 5,16,-1
 39 570 l 5,17,-1
 243 570 l 6,18,19
 256 570 256 570 256 557 c 6,20,-1
 256 413 l 6,21,22
 256 400 256 400 243 400 c 6,23,-1
 102 400 l 6,24,25
 75 400 75 400 56 381 c 132,-1,26
 37 362 37 362 37 335 c 6,27,-1
 39 65 l 6,28,29
 39 38 39 38 58 19 c 132,-1,30
 77 0 77 0 104 0 c 6,31,-1
 366 0 l 5,0,-1
EndSplineSet
Validated: 9
EndChar

StartChar: five
Encoding: 53 53 39
Width: 440
Flags: W
LayerCount: 2
Fore
SplineSet
57 0 m 5,0,-1
 57 130 l 5,1,-1
 241 130 l 6,2,3
 254 130 254 130 254 143 c 6,4,-1
 256 257 l 6,5,6
 256 270 256 270 243 270 c 6,7,-1
 102 270 l 6,8,9
 75 270 75 270 56 289 c 132,-1,10
 37 308 37 308 37 335 c 6,11,-1
 37 635 l 6,12,13
 37 662 37 662 56 681 c 132,-1,14
 75 700 75 700 102 700 c 6,15,-1
 384 700 l 5,16,-1
 384 570 l 5,17,-1
 180 570 l 6,18,19
 167 570 167 570 167 557 c 6,20,-1
 167 413 l 6,21,22
 167 400 167 400 180 400 c 6,23,-1
 321 400 l 6,24,25
 348 400 348 400 367 381 c 132,-1,26
 386 362 386 362 386 335 c 6,27,-1
 384 65 l 6,28,29
 384 38 384 38 365 19 c 132,-1,30
 346 0 346 0 319 0 c 6,31,-1
 57 0 l 5,0,-1
EndSplineSet
Validated: 1
EndChar

StartChar: eight
Encoding: 56 56 40
Width: 440
Flags: W
LayerCount: 2
Fore
SplineSet
89 405 m 1,0,-1
 89 633 l 2,1,2
 89 660 89 660 108 679 c 128,-1,3
 127 698 127 698 154 698 c 2,4,-1
 284 698 l 2,5,6
 311 698 311 698 330 679 c 128,-1,7
 349 660 349 660 349 633 c 2,8,-1
 349 405 l 1,9,10
 376 405 376 405 395 386 c 128,-1,11
 414 367 414 367 414 340 c 2,12,-1
 414 65 l 2,13,14
 414 38 414 38 395 19 c 128,-1,15
 376 0 376 0 349 0 c 2,16,-1
 89 0 l 2,17,18
 62 0 62 0 43 19 c 128,-1,19
 24 38 24 38 24 65 c 2,20,-1
 24 340 l 2,21,22
 24 367 24 367 43 386 c 128,-1,23
 62 405 62 405 89 405 c 1,0,-1
238 565 m 6,24,25
 238 578 238 578 225 578 c 6,26,-1
 214 578 l 2,27,28
 201 578 201 578 201 565 c 2,29,-1
 201 419 l 2,30,31
 201 406 201 406 214 406 c 2,32,-1
 225 406 l 6,33,34
 238 406 238 406 238 419 c 6,35,-1
 238 565 l 6,24,25
284 262 m 2,36,37
 284 275 284 275 271 275 c 2,38,-1
 167 275 l 2,39,40
 154 275 154 275 154 262 c 2,41,-1
 154 143 l 2,42,43
 154 130 154 130 167 130 c 2,44,-1
 271 130 l 2,45,46
 284 130 284 130 284 143 c 2,47,-1
 284 262 l 2,36,37
EndSplineSet
EndChar

StartChar: three
Encoding: 51 51 41
Width: 440
Flags: W
LayerCount: 2
Fore
SplineSet
271 275 m 2,0,-1
 86 275 l 1,1,-1
 86 405 l 1,2,-1
 232 405 l 2,3,4
 245 405 245 405 245 418 c 2,5,-1
 245 557 l 2,6,7
 245 570 245 570 232 570 c 2,8,-1
 86 570 l 1,9,-1
 86 700 l 1,10,11
 198 700 198 700 310 700 c 0,12,13
 337 700 337 700 356 681 c 128,-1,14
 375 662 375 662 375 635 c 2,15,-1
 375 399.82633525 l 1,16,17
 386 395 386 395 400 381 c 128,-1,18
 414 367 414 367 414 340 c 2,19,-1
 414 65 l 2,20,21
 414 38 414 38 395 19 c 128,-1,22
 376 0 376 0 349 0 c 2,23,-1
 86 0 l 1,24,-1
 86 130 l 1,25,-1
 271 130 l 2,26,27
 284 130 284 130 284 143 c 2,28,-1
 284 262 l 2,29,30
 284 275 284 275 271 275 c 2,0,-1
375 399.82633525 m 1025,31,-1
EndSplineSet
EndChar

StartChar: seven
Encoding: 55 55 42
Width: 440
Flags: W
LayerCount: 2
Fore
SplineSet
214 383 m 5,0,-1
 117 383.728515625 l 5,1,-1
 115 276 l 5,2,-1
 192.046875 276 l 5,3,-1
 131 0 l 1,4,-1
 261 0 l 1,5,-1
 396 635 l 2,6,7
 401 657 401 657 377 681 c 0,8,9
 358 700 358 700 331 700 c 2,10,-1
 25 700 l 1,11,-1
 25 570 l 1,12,-1
 238 570 l 2,13,14
 253.764367816 570 253.764367816 570 251 557 c 2,15,-1
 214 383 l 5,0,-1
EndSplineSet
EndChar

StartChar: four
Encoding: 52 52 43
Width: 479
Flags: W
LayerCount: 2
Fore
SplineSet
288 700 m 5,0,-1
 419 700 l 5,1,-1
 419 0 l 5,2,-1
 288 0 l 5,3,-1
 288 276 l 5,4,-1
 155 276 l 5,5,-1
 104 276 l 4,6,7
 37 276 37 276 37 356 c 4,8,-1
 38 700 l 5,9,-1
 158 700 l 5,10,-1
 158 403 l 6,11,12
 158 390 158 390 171 390 c 6,13,-1
 275 390 l 6,14,15
 288 390 288 390 288 403 c 6,16,-1
 288 700 l 5,0,-1
EndSplineSet
EndChar

StartChar: six
Encoding: 54 54 44
Width: 440
Flags: W
LayerCount: 2
Fore
SplineSet
254 131 m 6,0,-1
 170 131 l 6,1,2
 157 131 157 131 157 144 c 6,3,-1
 157 283 l 6,4,5
 157 296 157 296 170 296 c 6,6,-1
 254 296 l 6,7,8
 267 296 267 296 267 283 c 6,9,-1
 267 144 l 6,10,11
 267 131 267 131 254 131 c 6,0,-1
397 66 m 6,12,-1
 397 361 l 6,13,14
 397 388 397 388 378 407 c 132,-1,15
 359 426 359 426 332 426 c 6,16,-1
 170 426 l 6,17,18
 157 426 157 426 157 413 c 6,19,-1
 157 558 l 6,20,21
 157 571 157 571 170 571 c 6,22,-1
 362 571 l 5,23,-1
 362 701 l 5,24,-1
 92 701 l 6,25,26
 65 701 65 701 46 682 c 132,-1,27
 27 663 27 663 27 636 c 6,28,-1
 27 66 l 6,29,30
 27 39 27 39 46 20 c 132,-1,31
 65 1 65 1 92 1 c 6,32,-1
 332 1 l 6,33,34
 359 1 359 1 378 20 c 132,-1,35
 397 39 397 39 397 66 c 6,12,-1
EndSplineSet
Validated: 9
EndChar

StartChar: slash
Encoding: 47 47 45
Width: 440
Flags: W
LayerCount: 2
Fore
SplineSet
270 700 m 5,0,-1
 49 0 l 5,1,-1
 179 0 l 5,2,-1
 400 700 l 5,3,-1
 270 700 l 5,0,-1
EndSplineSet
Validated: 9
EndChar

StartChar: period
Encoding: 46 46 46
Width: 440
Flags: W
LayerCount: 2
Fore
SplineSet
284 132 m 6,0,1
 284 13 l 6,2,3
 284 0 284 0 271 0 c 6,4,-1
 167 0 l 6,5,6
 154 0 154 0 154 13 c 6,7,-1
 154 132 l 6,8,9
 154 145 154 145 167 145 c 6,10,-1
 271 145 l 6,11,12
 284 145 284 145 284 132 c 6,0,1
EndSplineSet
Validated: 1
EndChar

StartChar: comma
Encoding: 44 44 47
Width: 440
Flags: W
LayerCount: 2
Fore
SplineSet
311 129 m 6,0,1
 265 -82 l 6,2,3
 262 -95 262 -95 252 -95 c 6,4,-1
 148 -95 l 6,5,6
 132.166015625 -95 132.166015625 -95 135 -82 c 6,7,-1
 181 129 l 6,8,9
 184 142 184 142 194 142 c 6,10,-1
 298 142 l 6,11,12
 314 142 314 142 311 129 c 6,0,1
EndSplineSet
Validated: 524289
EndChar

StartChar: hyphen
Encoding: 45 45 48
Width: 440
Flags: W
LayerCount: 2
Fore
SplineSet
79 413 m 1,0,-1
 363 413 l 5,1,-1
 363 301 l 5,2,-1
 79 301 l 1,3,-1
 79 413 l 1,0,-1
EndSplineSet
Validated: 1
EndChar

StartChar: a
Encoding: 97 97 49
Width: 457
Flags: W
LayerCount: 2
Fore
SplineSet
310 0 m 5,0,-1
 298 92 l 5,1,-1
 172 92 l 5,2,-1
 160 0 l 5,3,-1
 30 0 l 5,4,-1
 136 700 l 5,5,-1
 334 700 l 5,6,-1
 440 0 l 5,7,-1
 310 0 l 5,0,-1
235 570 m 5,8,-1
 189 222 l 5,9,-1
 281 222 l 5,10,-1
 235 570 l 5,8,-1
EndSplineSet
EndChar

StartChar: b
Encoding: 98 98 50
Width: 459
Flags: W
LayerCount: 2
Fore
SplineSet
420 300 m 2,0,-1
 420 65 l 2,1,2
 420 38 420 38 401 19 c 128,-1,3
 382 0 382 0 355 0 c 2,4,-1
 30 0 l 1,5,-1
 30 701 l 1,6,-1
 355 701 l 2,7,8
 382 701 382 701 401 682 c 128,-1,9
 420 663 420 663 420 636 c 2,10,-1
 420 430 l 2,11,12
 420 403 420 403 401 384 c 128,-1,13
 382 365 382 365 355 365 c 1,14,15
 382 365 382 365 401 346 c 128,-1,16
 420 327 420 327 420 300 c 2,0,-1
160 430 m 1,17,-1
 277 430 l 2,18,19
 290 430 290 430 290 443 c 2,20,-1
 290 558 l 2,21,22
 290 571 290 571 277 571 c 2,23,-1
 160 571 l 1,24,-1
 160 430 l 1,17,-1
160 130 m 1,25,-1
 277 130 l 2,26,27
 290 130 290 130 290 143 c 2,28,-1
 290 287 l 2,29,30
 290 300 290 300 277 300 c 2,31,-1
 160 300 l 1,32,-1
 160 130 l 1,25,-1
EndSplineSet
EndChar

StartChar: c
Encoding: 99 99 51
Width: 388
Flags: W
LayerCount: 2
Fore
SplineSet
355 130 m 1,0,-1
 184 130 l 2,1,2
 171 130 171 130 171 143 c 2,3,-1
 171 558 l 2,4,5
 171 571 171 571 184 571 c 2,6,-1
 355 571 l 1,7,-1
 355 701 l 1,8,-1
 106 701 l 2,9,10
 79 701 79 701 60 682 c 128,-1,11
 41 663 41 663 41 636 c 2,12,-1
 41 65 l 2,13,14
 41 38 41 38 60 19 c 128,-1,15
 79 0 79 0 106 0 c 2,16,-1
 355 0 l 1,17,-1
 355 130 l 1,0,-1
EndSplineSet
EndChar

StartChar: d
Encoding: 100 100 52
Width: 468
Flags: W
LayerCount: 2
Fore
SplineSet
428 461 m 2,0,-1
 428 239 l 2,1,2
 428 75 428 75 395 41 c 0,3,4
 373 18 373 18 351.5 9 c 128,-1,5
 330 0 330 0 289 0 c 2,6,-1
 38 0 l 1,7,-1
 38 700 l 1,8,-1
 289 700 l 2,9,10
 330 700 330 700 351.5 691 c 128,-1,11
 373 682 373 682 395 659 c 0,12,13
 428 625 428 625 428 461 c 2,0,-1
273 570 m 2,14,-1
 168 570 l 1,15,-1
 168 130 l 1,16,-1
 273 130 l 2,17,18
 284 130 284 130 291 137 c 128,-1,19
 298 144 298 144 298 155 c 2,20,-1
 298 545 l 2,21,22
 298 556 298 556 291 563 c 128,-1,23
 284 570 284 570 273 570 c 2,14,-1
EndSplineSet
EndChar

StartChar: e
Encoding: 101 101 53
Width: 369
Flags: W
LayerCount: 2
Fore
SplineSet
324 570 m 1,0,-1
 173 570 l 1,1,-1
 173 421 l 1,2,-1
 303 421 l 1,3,-1
 303 291 l 1,4,-1
 173 291 l 1,5,-1
 173 130 l 1,6,-1
 324 130 l 1,7,-1
 324 0 l 1,8,-1
 43 0 l 1,9,-1
 43 700 l 1,10,-1
 324 700 l 1,11,-1
 324 570 l 1,0,-1
EndSplineSet
EndChar

StartChar: f
Encoding: 102 102 54
Width: 354
Flags: W
LayerCount: 2
Fore
SplineSet
327 570 m 1,0,-1
 176 570 l 1,1,-1
 176 421 l 1,2,-1
 306 421 l 1,3,-1
 306 287 l 1,4,-1
 176 287 l 1,5,-1
 176 0 l 1,6,-1
 46 0 l 1,7,-1
 46 700 l 1,8,-1
 327 700 l 1,9,-1
 327 570 l 1,0,-1
EndSplineSet
EndChar

StartChar: g
Encoding: 103 103 55
Width: 468
Flags: W
LayerCount: 2
Fore
SplineSet
236 390 m 1,0,-1
 418 390 l 2,1,2
 431 390 431 390 431 377 c 2,3,-1
 431 65 l 2,4,5
 431 38 431 38 412 19 c 128,-1,6
 393 0 393 0 366 0 c 2,7,-1
 106 0 l 2,8,9
 79 0 79 0 60 19 c 128,-1,10
 41 38 41 38 41 65 c 2,11,-1
 41 636 l 2,12,13
 41 663 41 663 60 682 c 128,-1,14
 79 701 79 701 106 701 c 2,15,-1
 365 701 l 1,16,-1
 365 571 l 1,17,-1
 184 571 l 2,18,19
 171 571 171 571 171 558 c 2,20,-1
 171 143 l 2,21,22
 171 130 171 130 184 130 c 2,23,-1
 288 130 l 2,24,25
 301 130 301 130 301 143 c 2,26,-1
 301 247 l 2,27,28
 301 260 301 260 288 260 c 2,29,-1
 236 260 l 1,30,-1
 236 390 l 1,0,-1
EndSplineSet
EndChar

StartChar: h
Encoding: 104 104 56
Width: 479
Flags: W
LayerCount: 2
Fore
SplineSet
303 287 m 1,0,-1
 303 0 l 1,1,-1
 433 0 l 1,2,-1
 433 700 l 1,3,-1
 303 700 l 1,4,-1
 303 421 l 1,5,-1
 173 421 l 1,6,-1
 173 700 l 1,7,-1
 43 700 l 1,8,-1
 43 0 l 1,9,-1
 173 0 l 1,10,-1
 173 287 l 1,11,-1
 303 287 l 1,0,-1
EndSplineSet
EndChar

StartChar: i
Encoding: 105 105 57
Width: 238
Flags: W
LayerCount: 2
Fore
SplineSet
49 700 m 5,0,-1
 49 0 l 5,1,-1
 179 0 l 5,2,-1
 179 700 l 5,3,-1
 49 700 l 5,0,-1
EndSplineSet
EndChar

StartChar: j
Encoding: 106 106 58
Width: 355
Flags: W
LayerCount: 2
Fore
SplineSet
25 130 m 5,0,-1
 25 0 l 5,1,-1
 258 0 l 6,2,3
 285 0 285 0 304 19 c 132,-1,4
 323 38 323 38 323 65 c 6,5,-1
 323 700 l 5,6,-1
 193 700 l 5,7,-1
 193 143 l 6,8,9
 193 130 193 130 180 130 c 6,10,-1
 25 130 l 5,0,-1
EndSplineSet
EndChar

StartChar: k
Encoding: 107 107 59
Width: 479
Flags: W
LayerCount: 2
Fore
SplineSet
157 701 m 1,0,-1
 157 452 l 1,1,-1
 277 701 l 1,2,-1
 418 701 l 1,3,-1
 277 411 l 1,4,-1
 449 0 l 1,5,-1
 308 0 l 1,6,-1
 202 255 l 1,7,-1
 157 161 l 1,8,-1
 157 0 l 1,9,-1
 27 0 l 1,10,-1
 27 701 l 1,11,-1
 157 701 l 1,0,-1
EndSplineSet
EndChar

StartChar: l
Encoding: 108 108 60
Width: 350
Flags: W
LayerCount: 2
Fore
SplineSet
157 700 m 1,0,-1
 157 130 l 1,1,-1
 325 130 l 1,2,-1
 325 0 l 1,3,-1
 27 0 l 1,4,-1
 27 700 l 1,5,-1
 157 700 l 1,0,-1
EndSplineSet
EndChar

StartChar: m
Encoding: 109 109 61
Width: 631
Flags: W
LayerCount: 2
Fore
SplineSet
230 700 m 1,0,-1
 49 700 l 1,1,-1
 49 0 l 1,2,-1
 179 0 l 1,3,-1
 179 416 l 1,4,-1
 267 0 l 1,5,-1
 369 0 l 1,6,-1
 457 416 l 1,7,-1
 457 0 l 1,8,-1
 587 0 l 1,9,-1
 587 700 l 1,10,-1
 406 700 l 1,11,-1
 318 284 l 1,12,-1
 230 700 l 1,0,-1
EndSplineSet
EndChar

StartChar: n
Encoding: 110 110 62
Width: 480
Flags: W
LayerCount: 2
Fore
SplineSet
30 700 m 1,0,-1
 30 0 l 1,1,-1
 160 0 l 1,2,-1
 160 384 l 1,3,-1
 318 0 l 1,4,-1
 448 0 l 1,5,-1
 448 700 l 1,6,-1
 318 700 l 1,7,-1
 318 316 l 1,8,-1
 160 700 l 1,9,-1
 30 700 l 1,0,-1
EndSplineSet
EndChar

StartChar: o
Encoding: 111 111 63
Width: 462
Flags: W
LayerCount: 2
Fore
SplineSet
296 557 m 6,0,-1
 296 143 l 6,1,2
 296 130 296 130 283 130 c 6,3,-1
 179 130 l 6,4,5
 166 130 166 130 166 143 c 6,6,-1
 166 557 l 6,7,8
 166 570 166 570 179 570 c 6,9,-1
 283 570 l 6,10,11
 296 570 296 570 296 557 c 6,0,-1
36 635 m 6,12,-1
 36 65 l 6,13,14
 36 38 36 38 55 19 c 132,-1,15
 74 0 74 0 101 0 c 6,16,-1
 361 0 l 6,17,18
 388 0 388 0 407 19 c 132,-1,19
 426 38 426 38 426 65 c 6,20,-1
 426 635 l 6,21,22
 426 662 426 662 407 681 c 132,-1,23
 388 700 388 700 361 700 c 6,24,-1
 101 700 l 6,25,26
 74 700 74 700 55 681 c 132,-1,27
 36 662 36 662 36 635 c 6,12,-1
EndSplineSet
EndChar

StartChar: p
Encoding: 112 112 64
Width: 438
Flags: W
LayerCount: 2
Fore
SplineSet
417 636 m 2,0,-1
 417 341 l 2,1,2
 417 314 417 314 398 295 c 128,-1,3
 379 276 379 276 352 276 c 2,4,-1
 157 276 l 1,5,-1
 157 0 l 1,6,-1
 27 0 l 1,7,-1
 27 701 l 1,8,-1
 352 701 l 2,9,10
 379 701 379 701 398 682 c 128,-1,11
 417 663 417 663 417 636 c 2,0,-1
157 406 m 1,12,-1
 274 406 l 2,13,14
 287 406 287 406 287 419 c 2,15,-1
 287 558 l 2,16,17
 287 571 287 571 274 571 c 2,18,-1
 157 571 l 1,19,-1
 157 406 l 1,12,-1
EndSplineSet
EndChar

StartChar: q
Encoding: 113 113 65
Width: 462
Flags: W
LayerCount: 2
Fore
SplineSet
283 -92 m 1,0,-1
 234 0 l 1,1,-1
 101 0 l 2,2,3
 74 0 74 0 55 19 c 128,-1,4
 36 38 36 38 36 65 c 2,5,-1
 36 635 l 2,6,7
 36 662 36 662 55 681 c 128,-1,8
 74 700 74 700 101 700 c 2,9,-1
 361 700 l 2,10,11
 388 700 388 700 407 681 c 128,-1,12
 426 662 426 662 426 635 c 2,13,-1
 426 65 l 2,14,15
 426 39 426 39 408 20.5 c 128,-1,16
 390 2 390 2 364 0 c 1,17,-1
 413 -92 l 1,18,-1
 283 -92 l 1,0,-1
296 143 m 2,19,-1
 296 557 l 2,20,21
 296 570 296 570 283 570 c 2,22,-1
 179 570 l 2,23,24
 166 570 166 570 166 557 c 2,25,-1
 166 143 l 2,26,27
 166 132 166 132 176 130 c 2,28,-1
 285 130 l 2,29,30
 296 132 296 132 296 143 c 2,19,-1
EndSplineSet
EndChar

StartChar: r
Encoding: 114 114 66
Width: 462
Flags: W
LayerCount: 2
Fore
SplineSet
425 636 m 2,0,-1
 425 356 l 2,1,2
 425 332 425 332 404 310.5 c 128,-1,3
 383 289 383 289 359 279 c 1,4,-1
 425 0 l 1,5,-1
 284 0 l 1,6,-1
 218 276 l 1,7,-1
 165 276 l 1,8,-1
 165 0 l 1,9,-1
 35 0 l 1,10,-1
 35 701 l 1,11,-1
 360 701 l 2,12,13
 387 701 387 701 406 682 c 128,-1,14
 425 663 425 663 425 636 c 2,0,-1
165 406 m 1,15,-1
 282 406 l 2,16,17
 295 406 295 406 295 419 c 2,18,-1
 295 558 l 2,19,20
 295 571 295 571 282 571 c 2,21,-1
 165 571 l 1,22,-1
 165 406 l 1,15,-1
EndSplineSet
EndChar

StartChar: s
Encoding: 115 115 67
Width: 418
Flags: W
LayerCount: 2
Fore
SplineSet
366 700 m 5,0,-1
 366 570 l 5,1,-1
 182 570 l 6,2,3
 169 570 169 570 169 557 c 6,4,-1
 167 443 l 6,5,6
 167 430 167 430 180 430 c 6,7,-1
 321 430 l 6,8,9
 348 430 348 430 367 411 c 132,-1,10
 386 392 386 392 386 365 c 6,11,-1
 386 65 l 6,12,13
 386 38 386 38 367 19 c 132,-1,14
 348 0 348 0 321 0 c 6,15,-1
 39 0 l 5,16,-1
 39 130 l 5,17,-1
 243 130 l 6,18,19
 256 130 256 130 256 143 c 6,20,-1
 256 287 l 6,21,22
 256 300 256 300 243 300 c 6,23,-1
 102 300 l 6,24,25
 75 300 75 300 56 319 c 132,-1,26
 37 338 37 338 37 365 c 6,27,-1
 39 635 l 6,28,29
 39 662 39 662 58 681 c 132,-1,30
 77 700 77 700 104 700 c 6,31,-1
 366 700 l 5,0,-1
EndSplineSet
EndChar

StartChar: t
Encoding: 116 116 68
Width: 369
Flags: W
LayerCount: 2
Fore
SplineSet
344 700 m 1,0,-1
 22 700 l 1,1,-1
 22 566 l 1,2,-1
 116 566 l 1,3,-1
 116 0 l 1,4,-1
 250 0 l 1,5,-1
 250 566 l 1,6,-1
 344 566 l 1,7,-1
 344 700 l 1,0,-1
EndSplineSet
EndChar

StartChar: u
Encoding: 117 117 69
Width: 479
Flags: W
LayerCount: 2
Fore
SplineSet
106 0 m 2,0,-1
 366 0 l 2,1,2
 393 0 393 0 412 19 c 128,-1,3
 431 38 431 38 431 65 c 2,4,-1
 431 700 l 1,5,-1
 301 700 l 5,6,-1
 301 143 l 6,7,8
 301 130 301 130 288 130 c 6,9,-1
 184 130 l 6,10,11
 171 130 171 130 171 143 c 6,12,-1
 171 700 l 5,13,-1
 41 700 l 1,14,-1
 41 65 l 2,15,16
 41 38 41 38 60 19 c 128,-1,17
 79 0 79 0 106 0 c 2,0,-1
EndSplineSet
EndChar

StartChar: v
Encoding: 118 118 70
Width: 468
Flags: W
LayerCount: 2
Fore
SplineSet
155 700 m 1,0,-1
 230 196 l 1,1,-1
 306 700 l 1,2,-1
 428 700 l 1,3,-1
 323 0 l 1,4,-1
 138 0 l 1,5,-1
 33 700 l 1,6,-1
 155 700 l 1,0,-1
EndSplineSet
EndChar

StartChar: w
Encoding: 119 119 71
Width: 654
Flags: W
LayerCount: 2
Fore
SplineSet
138 700 m 1,0,-1
 199 292 l 1,1,-1
 276 680 l 1,2,-1
 378 680 l 1,3,-1
 455 292 l 1,4,-1
 516 700 l 1,5,-1
 638 700 l 1,6,-1
 533 0 l 1,7,-1
 411 0 l 1,8,-1
 327 423 l 1,9,-1
 243 0 l 1,10,-1
 121 0 l 1,11,-1
 16 700 l 1,12,-1
 138 700 l 1,0,-1
EndSplineSet
EndChar

StartChar: x
Encoding: 120 120 72
Width: 441
Flags: W
LayerCount: 2
Fore
SplineSet
432 0 m 1,0,-1
 292 371 l 1,1,-1
 416 700 l 1,2,-1
 276 700 l 1,3,-1
 222 557 l 1,4,-1
 168 700 l 1,5,-1
 28 700 l 1,6,-1
 152 371 l 1,7,-1
 12 0 l 1,8,-1
 152 0 l 1,9,-1
 222 185 l 1,10,-1
 292 0 l 1,11,-1
 432 0 l 1,0,-1
EndSplineSet
EndChar

StartChar: y
Encoding: 121 121 73
Width: 404
Flags: W
LayerCount: 2
Fore
SplineSet
265 376 m 1,0,-1
 267 376 l 1,1,-1
 389 700 l 1,2,-1
 257 700 l 1,3,-1
 201 551 l 1,4,-1
 145 700 l 1,5,-1
 13 700 l 1,6,-1
 135 376 l 1,7,-1
 135 0 l 1,8,-1
 265 0 l 1,9,-1
 265 376 l 1,0,-1
EndSplineSet
EndChar

StartChar: z
Encoding: 122 122 74
Width: 446
Flags: W
LayerCount: 2
Fore
SplineSet
50 700 m 1,0,-1
 50 570 l 1,1,-1
 233 570 l 1,2,-1
 18 0 l 1,3,-1
 414 0 l 1,4,-1
 414 130 l 1,5,-1
 207 130 l 1,6,-1
 422 700 l 1,7,-1
 50 700 l 1,0,-1
EndSplineSet
EndChar

StartChar: bracketleft
Encoding: 91 91 75
Width: 440
Flags: W
LayerCount: 2
Fore
SplineSet
312 0 m 5,0,-1
 181 0 l 6,1,2
 154 0 154 0 135 19 c 132,-1,3
 116 38 116 38 116 65 c 6,4,-1
 116 635 l 6,5,6
 116 662 116 662 135 681 c 132,-1,7
 154 700 154 700 181 700 c 6,8,-1
 312 700 l 5,9,-1
 312 570 l 5,10,-1
 259 570 l 6,11,12
 246 570 246 570 246 557 c 6,13,-1
 246 143 l 6,14,15
 246 130 246 130 259 130 c 6,16,-1
 312 130 l 5,17,-1
 312 0 l 5,0,-1
312 570 m 1029,18,-1
312 130 m 1029,19,-1
312 0 m 1029,20,-1
EndSplineSet
EndChar

StartChar: bracketright
Encoding: 93 93 76
Width: 440
Flags: W
LayerCount: 2
Fore
SplineSet
116 0 m 5,0,-1
 247 0 l 6,1,2
 274 0 274 0 293 19 c 132,-1,3
 312 38 312 38 312 65 c 6,4,-1
 312 635 l 6,5,6
 312 662 312 662 293 681 c 132,-1,7
 274 700 274 700 247 700 c 6,8,-1
 116 700 l 5,9,-1
 116 570 l 5,10,-1
 169 570 l 6,11,12
 182 570 182 570 182 557 c 6,13,-1
 182 143 l 6,14,15
 182 130 182 130 169 130 c 6,16,-1
 116 130 l 5,17,-1
 116 0 l 5,0,-1
116 570 m 1029,18,-1
116 130 m 1029,19,-1
116 0 m 1029,20,-1
EndSplineSet
EndChar

StartChar: backslash
Encoding: 92 92 77
Width: 440
Flags: W
LayerCount: 2
Fore
SplineSet
179 700 m 1,0,-1
 400 0 l 1,1,-1
 270 0 l 1,2,-1
 49 700 l 1,3,-1
 179 700 l 1,0,-1
EndSplineSet
EndChar
